# xmcd
#
# Track frame offsets:
#	150
#	18314
#	35767
#	49389
#	66076
#	82749
#	96705
#	110661
#	126595
#	143505
#
# Disc length: 2180 seconds
#
# Revision: 0
# Processed by: cddbd v1.4PL0 Copyright (c) Steve Scherf et al.
# Submitted via: EasyCDDAExtractor 4.5.0.2
#
DISCID=8f08820a
DTITLE=Antwniadhs Xristos - 8ema
DYEAR=1999
DGENRE=
TTITLE0=An
TTITLE1=Auton ton erwta(o tauros)
TTITLE2=Ferte ton logariasmo
TTITLE3=3eno arwma
TTITLE4=Eisai 8ema
TTITLE5=8elw na m`agapas
TTITLE6=Trella mou matia
TTITLE7=8a fygw apopse
TTITLE8=fere na pioume agaph mou
TTITLE9=Ti 8eleis apo menane
EXTD=KLcanislupus©
EXTT0=
EXTT1=
EXTT2=
EXTT3=
EXTT4=
EXTT5=
EXTT6=
EXTT7=
EXTT8=
EXTT9=
PLAYORDER=
